<?xml version="1.0" encoding="utf-8"?>
<!-- Generator: Adobe Illustrator 22.0.0, SVG Export Plug-In . SVG Version: 6.00 Build 0)  -->
<svg version="1.1" id="Слой_1" xmlns="http://www.w3.org/2000/svg" xmlns:xlink="http://www.w3.org/1999/xlink" x="0px" y="0px"
	 viewBox="0 0 31 31" style="enable-background:new 0 0 31 31;" xml:space="preserve">
<style type="text/css">
	.st0{fill:#FFC618;}
</style>
<path class="st0" d="M15.5,5.5c5.5,0,10,4.5,10,10s-4.5,10-10,10s-10-4.5-10-10S10,5.5,15.5,5.5z"/>
<g>
	<path class="st0" d="M15.5,2C22.9,2,29,8.1,29,15.5S22.9,29,15.5,29S2,22.9,2,15.5S8.1,2,15.5,2 M15.5,0C6.9,0,0,6.9,0,15.5
		S6.9,31,15.5,31S31,24.1,31,15.5S24.1,0,15.5,0L15.5,0z"/>
</g>
</svg>
